<svg width="66" height="50" viewBox="0 0 66 50" fill="none" xmlns="http://www.w3.org/2000/svg">
<path d="M64.9203 24.1675L58.0498 8.22286C57.8745 7.81115 57.5812 7.45987 57.2065 7.21279C56.8319 6.96571 56.3924 6.83377 55.9428 6.8334H49.0723V2.2778C49.0723 1.67369 48.831 1.09432 48.4015 0.667153C47.972 0.239982 47.3895 0 46.7821 0H3.2687C2.6613 0 2.07879 0.239982 1.64929 0.667153C1.2198 1.09432 0.978516 1.67369 0.978516 2.2778V41.0004C0.978516 41.6045 1.2198 42.1839 1.64929 42.6111C2.07879 43.0382 2.6613 43.2782 3.2687 43.2782H8.16968C8.69707 45.2084 9.84839 46.9123 11.446 48.127C13.0436 49.3418 14.9988 50 17.0098 50C19.0208 50 20.9759 49.3418 22.5735 48.127C24.1712 46.9123 25.3225 45.2084 25.8499 43.2782H40.2322C40.7596 45.2084 41.9109 46.9123 43.5085 48.127C45.1061 49.3418 47.0613 50 49.0723 50C51.0833 50 53.0384 49.3418 54.6361 48.127C56.2337 46.9123 57.385 45.2084 57.9124 43.2782H62.8134C63.4208 43.2782 64.0033 43.0382 64.4328 42.6111C64.8623 42.1839 65.1036 41.6045 65.1036 41.0004V25.0558C65.103 24.7505 65.0407 24.4484 64.9203 24.1675ZM49.0723 11.389H54.4313L59.3323 22.778H49.0723V11.389ZM17.0098 45.556C16.1039 45.556 15.2183 45.2888 14.4651 44.7883C13.7118 44.2877 13.1248 43.5762 12.7781 42.7438C12.4314 41.9113 12.3407 40.9954 12.5174 40.1117C12.6942 39.228 13.1304 38.4162 13.771 37.7791C14.4115 37.142 15.2277 36.7081 16.1162 36.5323C17.0047 36.3566 17.9257 36.4468 18.7626 36.7916C19.5996 37.1364 20.3149 37.7203 20.8182 38.4695C21.3215 39.2186 21.5901 40.0994 21.5901 41.0004C21.5901 42.2086 21.1076 43.3674 20.2486 44.2217C19.3896 45.076 18.2246 45.556 17.0098 45.556ZM40.2322 38.7226H25.8499C25.3225 36.7925 24.1712 35.0886 22.5735 33.8738C20.9759 32.659 19.0208 32.0008 17.0098 32.0008C14.9988 32.0008 13.0436 32.659 11.446 33.8738C9.84839 35.0886 8.69707 36.7925 8.16968 38.7226H5.55888V4.5556H44.4919V33.1648C43.4491 33.7668 42.536 34.5676 41.805 35.5213C41.074 36.4751 40.5395 37.563 40.2322 38.7226ZM49.0723 45.556C48.1664 45.556 47.2808 45.2888 46.5276 44.7883C45.7743 44.2877 45.1873 43.5762 44.8406 42.7438C44.4939 41.9113 44.4032 40.9954 44.5799 40.1117C44.7567 39.228 45.1929 38.4162 45.8335 37.7791C46.4741 37.142 47.2902 36.7081 48.1787 36.5323C49.0672 36.3566 49.9882 36.4468 50.8251 36.7916C51.6621 37.1364 52.3774 37.7203 52.8807 38.4695C53.384 39.2186 53.6527 40.0994 53.6527 41.0004C53.6527 42.2086 53.1701 43.3674 52.3111 44.2217C51.4521 45.076 50.2871 45.556 49.0723 45.556ZM60.5232 38.7226H57.9124C57.4059 36.7717 56.2636 35.0428 54.6641 33.8064C53.0646 32.57 51.0981 31.8958 49.0723 31.8892V27.3336H60.5232V38.7226Z" fill="#2090E8"/>
</svg>
