<svg width="71" height="50" viewBox="0 0 71 50" fill="none" xmlns="http://www.w3.org/2000/svg">
<path d="M65.9367 0H5.6106C4.27777 0.00148882 2.99996 0.528752 2.05751 1.46611C1.11505 2.40347 0.584925 3.67437 0.583428 5V15.23C0.583428 15.2425 0.581543 15.2541 0.581543 15.2666C0.581543 15.2791 0.583428 15.2906 0.583428 15.3028V45C0.584925 46.3256 1.11505 47.5965 2.05751 48.5339C2.99996 49.4712 4.27777 49.9985 5.6106 50H65.9367C67.2695 49.9985 68.5473 49.4712 69.4898 48.5339C70.4322 47.5965 70.9624 46.3256 70.9639 45V5C70.9624 3.67437 70.4322 2.40347 69.4898 1.46611C68.5473 0.528752 67.2695 0.00148882 65.9367 0ZM65.9367 5L65.9373 12.7666H5.6106V5H65.9367ZM65.9367 45H5.6106V17.7666H65.9376L65.9398 45H65.9367ZM60.9076 37.5C60.9076 38.163 60.6428 38.7989 60.1714 39.2678C59.7 39.7366 59.0607 40 58.394 40H48.3397C47.673 40 47.0337 39.7366 46.5623 39.2678C46.0909 38.7989 45.8261 38.163 45.8261 37.5C45.8261 36.837 46.0909 36.2011 46.5623 35.7322C47.0337 35.2634 47.673 35 48.3397 35H58.394C59.0607 35 59.7 35.2634 60.1714 35.7322C60.6428 36.2011 60.9076 36.837 60.9076 37.5ZM40.7989 37.5C40.7989 38.163 40.5341 38.7989 40.0627 39.2678C39.5913 39.7366 38.952 40 38.2853 40H33.2582C32.5915 40 31.9522 39.7366 31.4808 39.2678C31.0094 38.7989 30.7446 38.163 30.7446 37.5C30.7446 36.837 31.0094 36.2011 31.4808 35.7322C31.9522 35.2634 32.5915 35 33.2582 35H38.2853C38.952 35 39.5913 35.2634 40.0627 35.7322C40.5341 36.2011 40.7989 36.837 40.7989 37.5Z" fill="#2090E8"/>
</svg>
