<svg width="56" height="56" viewBox="0 0 56 56" fill="none" xmlns="http://www.w3.org/2000/svg">
<path d="M18.9956 25.7273C22.0258 25.7273 24.9319 24.53 27.0745 22.3989C29.2172 20.2678 30.4209 17.3775 30.4209 14.3636C30.4209 11.3498 29.2172 8.45943 27.0745 6.32833C24.9319 4.19724 22.0258 3 18.9956 3C15.9653 3 13.0593 4.19724 10.9166 6.32833C8.7739 8.45943 7.57016 11.3498 7.57016 14.3636C7.57016 17.3775 8.7739 20.2678 10.9166 22.3989C13.0593 24.53 15.9653 25.7273 18.9956 25.7273ZM18.9956 25.7273C23.5954 25.7273 27.6149 27.4545 30.4735 30.325M18.9956 25.7273C9.85524 25.7273 3 32.5455 3 41.6364V53H25.8508M28.1359 43.5091L37.7104 50.7273L53.2717 30.2727" stroke="#2090E8" stroke-width="5"/>
</svg>
