<svg width="28" height="26" viewBox="0 0 28 26" fill="none" xmlns="http://www.w3.org/2000/svg">
<path fill-rule="evenodd" clip-rule="evenodd" d="M6.24 0.75H0.25V3.25H4.2725L7.735 19.0975H7.75V19.5H24V19.19L26.7413 7.11375L27.1638 5.75H7.31875L6.60625 2.48625L6.24 0.75ZM23.9838 8.25H7.865L9.77625 17H21.9975L23.9838 8.25Z" fill="#2090E8"/>
<path d="M11.5 25.75C12.163 25.75 12.7989 25.4866 13.2678 25.0178C13.7366 24.5489 14 23.913 14 23.25C14 22.587 13.7366 21.9511 13.2678 21.4822C12.7989 21.0134 12.163 20.75 11.5 20.75C10.837 20.75 10.2011 21.0134 9.73223 21.4822C9.26339 21.9511 9 22.587 9 23.25C9 23.913 9.26339 24.5489 9.73223 25.0178C10.2011 25.4866 10.837 25.75 11.5 25.75Z" fill="#2090E8"/>
<path d="M22.75 23.25C22.75 23.913 22.4866 24.5489 22.0178 25.0178C21.5489 25.4866 20.913 25.75 20.25 25.75C19.587 25.75 18.9511 25.4866 18.4822 25.0178C18.0134 24.5489 17.75 23.913 17.75 23.25C17.75 22.587 18.0134 21.9511 18.4822 21.4822C18.9511 21.0134 19.587 20.75 20.25 20.75C20.913 20.75 21.5489 21.0134 22.0178 21.4822C22.4866 21.9511 22.75 22.587 22.75 23.25Z" fill="#2090E8"/>
</svg>
