<svg width="16" height="17" viewBox="0 0 16 17" fill="none" xmlns="http://www.w3.org/2000/svg">
<path d="M11.7425 11.1362C12.7107 9.81474 13.1444 8.17637 12.9567 6.54886C12.769 4.92135 11.9739 3.42473 10.7303 2.35841C9.48666 1.29209 7.88635 0.734714 6.2495 0.797793C4.61265 0.860873 3.05997 1.53976 1.90209 2.69862C0.744221 3.85749 0.0665459 5.41087 0.00464636 7.048C-0.0572531 8.68512 0.501188 10.2853 1.56825 11.5283C2.63531 12.7713 4.13229 13.5655 5.7597 13.752C7.38711 13.9386 9.02494 13.5037 10.3455 12.5343H10.3445C10.3745 12.5743 10.4065 12.6123 10.4425 12.6493L14.2924 16.4997C14.4799 16.6874 14.7342 16.7929 14.9995 16.793C15.2647 16.7931 15.5192 16.6878 15.7068 16.5002C15.8944 16.3127 15.9999 16.0583 16 15.793C16.0001 15.5277 15.8948 15.2733 15.7073 15.0856L11.8575 11.2352C11.8217 11.199 11.7833 11.1656 11.7425 11.1352V11.1362ZM12.0004 7.29179C12.0004 8.01413 11.8582 8.7294 11.5818 9.39676C11.3054 10.0641 10.9003 10.6705 10.3896 11.1813C9.87889 11.6921 9.2726 12.0972 8.60533 12.3736C7.93807 12.6501 7.2229 12.7924 6.50065 12.7924C5.77841 12.7924 5.06324 12.6501 4.39597 12.3736C3.72871 12.0972 3.12242 11.6921 2.61171 11.1813C2.10101 10.6705 1.6959 10.0641 1.41951 9.39676C1.14312 8.7294 1.00086 8.01413 1.00086 7.29179C1.00086 5.83295 1.5803 4.43385 2.61171 3.4023C3.64312 2.37074 5.04202 1.79122 6.50065 1.79122C7.95929 1.79122 9.35818 2.37074 10.3896 3.4023C11.421 4.43385 12.0004 5.83295 12.0004 7.29179Z" fill="white"/>
</svg>
