<svg width="21" height="20" viewBox="0 0 21 20" fill="none" xmlns="http://www.w3.org/2000/svg">
<path d="M10.6084 1.83285C13.2751 1.83285 13.6084 1.83284 14.6917 1.91618C17.4417 1.99951 18.6917 3.33284 18.7751 5.99951C18.8584 7.08284 18.8584 7.33284 18.8584 9.99951C18.8584 12.6662 18.8584 12.9995 18.7751 13.9995C18.6917 16.6662 17.3584 17.9995 14.6917 18.0828C13.6084 18.1662 13.3584 18.1662 10.6084 18.1662C7.94173 18.1662 7.6084 18.1662 6.6084 18.0828C3.8584 17.9995 2.6084 16.6662 2.52507 13.9995C2.44173 12.9162 2.44173 12.6662 2.44173 9.99951C2.44173 7.33284 2.44173 6.99951 2.52507 5.99951C2.6084 3.33284 3.94173 1.99951 6.6084 1.91618C7.6084 1.83284 7.94173 1.83285 10.6084 1.83285ZM10.6084 -0.000488281C7.8584 -0.000488281 7.52506 -0.000488281 6.52506 0.0828451C2.8584 0.249512 0.858398 2.24951 0.691732 5.91618C0.608398 6.91618 0.608398 7.24951 0.608398 9.99951C0.608398 12.7495 0.608398 13.0828 0.691732 14.0828C0.858398 17.7495 2.8584 19.7495 6.52506 19.9162C7.52506 19.9995 7.8584 19.9995 10.6084 19.9995C13.3584 19.9995 13.6917 19.9995 14.6917 19.9162C18.3584 19.7495 20.3584 17.7495 20.5251 14.0828C20.6084 13.0828 20.6084 12.7495 20.6084 9.99951C20.6084 7.24951 20.6084 6.91618 20.5251 5.91618C20.3584 2.24951 18.3584 0.249512 14.6917 0.0828451C13.6917 -0.000488281 13.3584 -0.000488281 10.6084 -0.000488281ZM10.6084 4.83285C7.77506 4.83285 5.44173 7.16618 5.44173 9.99951C5.44173 12.8328 7.77506 15.1662 10.6084 15.1662C13.4417 15.1662 15.7751 12.8328 15.7751 9.99951C15.7751 7.16618 13.4417 4.83285 10.6084 4.83285ZM10.6084 13.3328C8.77506 13.3328 7.27506 11.8328 7.27506 9.99951C7.27506 8.16618 8.77506 6.66618 10.6084 6.66618C12.4417 6.66618 13.9417 8.16618 13.9417 9.99951C13.9417 11.8328 12.4417 13.3328 10.6084 13.3328ZM15.9417 3.49951C15.2751 3.49951 14.7751 3.99951 14.7751 4.66618C14.7751 5.33284 15.2751 5.83284 15.9417 5.83284C16.6084 5.83284 17.1084 5.33284 17.1084 4.66618C17.1084 3.99951 16.6084 3.49951 15.9417 3.49951Z" fill="white"/>
</svg>
