<svg width="30" height="30" viewBox="0 0 30 30" fill="none" xmlns="http://www.w3.org/2000/svg">
<path d="M27.3812 6.52911C24.6786 2.58616 20.1414 -0.000488281 15 -0.000488281C6.71573 -0.000488281 0 6.71523 0 14.9995C0 16.2047 0.14215 17.3768 0.410585 18.4998L8.04917 10.8612C8.78141 10.1289 9.96859 10.1289 10.7008 10.8612L16.875 17.0354L27.3812 6.52911Z" fill="white"/>
<path d="M29.1641 10.0496L18.2008 21.0128C17.4686 21.7451 16.2814 21.7451 15.5492 21.0128L9.375 14.8387L1.90063 22.313C4.46662 26.8992 9.37125 29.9995 15 29.9995C23.2843 29.9995 30 23.2838 30 14.9995C30 13.265 29.7056 11.5993 29.1641 10.0496Z" fill="white"/>
</svg>
