<svg width="25" height="20" viewBox="0 0 25 20" fill="none" xmlns="http://www.w3.org/2000/svg">
<path d="M7.7392 19.9995C17.0259 19.9995 22.1045 12.3057 22.1045 5.63423C22.1045 5.41564 22.1 5.19816 22.0899 4.98153C23.0757 4.26893 23.9327 3.37945 24.6086 2.36737C23.704 2.76929 22.7306 3.03994 21.7093 3.16197C22.7516 2.53698 23.5521 1.54786 23.9296 0.368965C22.9539 0.947494 21.8736 1.36789 20.7238 1.5946C19.8021 0.613307 18.49 -0.000488281 17.0382 -0.000488281C14.2497 -0.000488281 11.9885 2.26073 11.9885 5.04786C11.9885 5.44418 12.033 5.82931 12.1192 6.19904C7.92337 5.98829 4.20253 3.97897 1.71264 0.924264C1.27853 1.67017 1.02859 2.53726 1.02859 3.46173C1.02859 5.21328 1.92004 6.75966 3.27554 7.66454C2.44735 7.63907 1.66926 7.41124 0.988846 7.03283C0.987727 7.05382 0.987727 7.0751 0.987727 7.09721C0.987727 9.54259 2.72835 11.5841 5.03827 12.0468C4.61424 12.1624 4.1681 12.2245 3.7074 12.2245C3.38217 12.2245 3.0659 12.192 2.7583 12.1335C3.40093 14.1392 5.26498 15.5991 7.47498 15.6402C5.74667 16.9946 3.5697 17.8015 1.20436 17.8015C0.797123 17.8015 0.395203 17.7783 0 17.7316C2.23435 19.1635 4.88741 19.9995 7.7392 19.9995Z" fill="white"/>
</svg>
